<svg width="2902" height="6601" viewBox="0 0 2902 6601" fill="none" xmlns="http://www.w3.org/2000/svg">
<mask id="mask0_148_55" style="mask-type:alpha" maskUnits="userSpaceOnUse" x="0" y="0" width="2902" height="6601">
<rect width="2902" height="6601" fill="#0A0A0A"/>
</mask>
<g mask="url(#mask0_148_55)">
<rect width="2902" height="6601" fill="#0A0A0A"/>
<rect x="1198.85" y="2670.85" width="484.553" height="484.553" stroke="#3EFFDC" stroke-width="7.69132"/>
<g filter="url(#filter0_d_148_55)">
<rect x="1321.91" y="2776.6" width="484.553" height="484.553" stroke="#3EFFDC" stroke-width="7.69132" shape-rendering="crispEdges"/>
</g>
<path d="M1495.08 2895V3069.98H1455.9V2895H1495.08ZM1599.64 2895L1531.13 2982.49L1491.24 3025.75L1484.15 2989.34L1510.46 2951.6L1551.56 2895H1599.64ZM1554.21 3069.98L1505.9 2990.06L1535.7 2966.87L1600.6 3069.98H1554.21Z" fill="#3EFFDC"/>
<path d="M1510.46 2912.31V3087.28H1471.29V2912.31H1510.46ZM1615.02 2912.31L1546.52 2999.79L1506.62 3043.06L1499.53 3006.64L1525.85 2968.91L1566.95 2912.31H1615.02ZM1569.59 3087.28L1521.28 3007.37L1551.08 2984.17L1615.98 3087.28H1569.59Z" fill="white"/>
<ellipse cx="1519.5" cy="3019" rx="2300.5" ry="2292" fill="url(#paint0_radial_148_55)"/>
</g>
<defs>
<filter id="filter0_d_148_55" x="1211.06" y="2665.76" width="706.245" height="706.244" filterUnits="userSpaceOnUse" color-interpolation-filters="sRGB">
<feFlood flood-opacity="0" result="BackgroundImageFix"/>
<feColorMatrix in="SourceAlpha" type="matrix" values="0 0 0 0 0 0 0 0 0 0 0 0 0 0 0 0 0 0 127 0" result="hardAlpha"/>
<feMorphology radius="94" operator="dilate" in="SourceAlpha" result="effect1_dropShadow_148_55"/>
<feOffset/>
<feGaussianBlur stdDeviation="6.5"/>
<feComposite in2="hardAlpha" operator="out"/>
<feColorMatrix type="matrix" values="0 0 0 0 0 0 0 0 0 0 0 0 0 0 0 0 0 0 0.25 0"/>
<feBlend mode="normal" in2="BackgroundImageFix" result="effect1_dropShadow_148_55"/>
<feBlend mode="normal" in="SourceGraphic" in2="effect1_dropShadow_148_55" result="shape"/>
</filter>
<radialGradient id="paint0_radial_148_55" cx="0" cy="0" r="1" gradientUnits="userSpaceOnUse" gradientTransform="translate(1519.5 3019) rotate(90) scale(2292 2300.5)">
<stop stop-color="#3EFFDC" stop-opacity="0.28"/>
<stop offset="1" stop-color="#D9D9D9" stop-opacity="0"/>
</radialGradient>
</defs>
</svg>
