<svg width="991" height="294" viewBox="0 0 991 294" fill="none" xmlns="http://www.w3.org/2000/svg">
<path d="M45 164C45 163.448 45.4477 163 46 163H104C104.552 163 105 163.448 105 164V291C105 291.552 104.552 292 104 292H46C45.4477 292 45 291.552 45 291V164Z" fill="#222222"/>
<path d="M114 233C114 232.448 114.448 232 115 232H164C164.552 232 165 232.448 165 233V289C165 289.552 164.552 290 164 290H115C114.448 290 114 289.552 114 289V233Z" fill="#222222"/>
<path d="M344 200H506V292H344V200Z" fill="#222222"/>
<path d="M224 113H254V291H224V113Z" fill="#222222"/>
<path d="M145 44H196V292H145V44Z" fill="#141414"/>
<path d="M321 81H366V292H321V81Z" fill="#222222"/>
<path d="M393 163H453V292H393V163Z" fill="#222222"/>
<path d="M480 1.69129C480 0.930685 480.815 0.448506 481.482 0.815055L539.482 32.7151C539.801 32.8908 540 33.2266 540 33.5913V291C540 291.552 539.552 292 539 292H481C480.448 292 480 291.552 480 291V1.69129Z" fill="#222222"/>
<path d="M569 137.628C573.113 133.814 576.91 130.295 580.5 126.966C597.361 111.333 609.682 99.9103 629 82V290H569V137.628Z" fill="#222222"/>
<path d="M580.5 126.966L629 82H580.5V126.966Z" fill="#222222"/>
<path d="M155 0H158V44H155V0Z" fill="#141414"/>
<path d="M174.198 45.2354L171.713 46.9155L155.516 22.9574L158.001 21.2772L174.198 45.2354Z" fill="#141414"/>
<path d="M238 217C238 216.448 238.448 216 239 216H253C253.552 216 254 216.448 254 217V288C254 288.552 253.552 289 253 289H239C238.448 289 238 288.552 238 288V217Z" fill="#141414"/>
<path d="M359 217C359 216.448 359.448 216 360 216H374C374.552 216 375 216.448 375 217V288C375 288.552 374.552 289 374 289H360C359.448 289 359 288.552 359 288V217Z" fill="#141414"/>
<path d="M251 225H367V289H251V225Z" fill="#141414"/>
<path d="M306.296 212L334 220.116L306.296 240L279 220.116L306.296 212Z" fill="#141414"/>
<path d="M296 153H317V225H296V153Z" fill="#141414"/>
<path d="M313 168C313 171.314 310.314 174 307 174C303.686 174 301 171.314 301 168C301 164.686 303.686 162 307 162C310.314 162 313 164.686 313 168Z" fill="#A9A9A9"/>
<path d="M312 168C312 170.761 309.761 173 307 173C304.239 173 302 170.761 302 168C302 165.239 304.239 163 307 163C309.761 163 312 165.239 312 168Z" fill="#222222"/>
<path fill-rule="evenodd" clip-rule="evenodd" d="M307 172.9C309.706 172.9 311.9 170.706 311.9 168C311.9 165.294 309.706 163.1 307 163.1C304.294 163.1 302.1 165.294 302.1 168C302.1 170.706 304.294 172.9 307 172.9ZM307 173C309.761 173 312 170.761 312 168C312 165.239 309.761 163 307 163C304.239 163 302 165.239 302 168C302 170.761 304.239 173 307 173Z" fill="#A9A9A9"/>
<path fill-rule="evenodd" clip-rule="evenodd" d="M307 173V163H307.1V173H307Z" fill="#A9A9A9"/>
<path fill-rule="evenodd" clip-rule="evenodd" d="M307 173V163H307.1V173H307Z" fill="#A9A9A9"/>
<path fill-rule="evenodd" clip-rule="evenodd" d="M304.611 172.392L309.389 163.608L309.477 163.656L304.699 172.44L304.611 172.392Z" fill="#A9A9A9"/>
<path fill-rule="evenodd" clip-rule="evenodd" d="M304.611 172.392L309.389 163.608L309.477 163.656L304.699 172.44L304.611 172.392Z" fill="#A9A9A9"/>
<path fill-rule="evenodd" clip-rule="evenodd" d="M302.574 170.326L311.426 165.674L311.473 165.763L302.62 170.414L302.574 170.326Z" fill="#A9A9A9"/>
<path fill-rule="evenodd" clip-rule="evenodd" d="M302.574 170.326L311.426 165.674L311.473 165.763L302.62 170.414L302.574 170.326Z" fill="#A9A9A9"/>
<path fill-rule="evenodd" clip-rule="evenodd" d="M302.035 167.41L311.965 168.59L311.953 168.689L302.023 167.509L302.035 167.41Z" fill="#A9A9A9"/>
<path fill-rule="evenodd" clip-rule="evenodd" d="M302.035 167.41L311.965 168.59L311.953 168.689L302.023 167.509L302.035 167.41Z" fill="#A9A9A9"/>
<path fill-rule="evenodd" clip-rule="evenodd" d="M303.479 164.45L310.521 171.55L310.45 171.62L303.408 164.521L303.479 164.45Z" fill="#A9A9A9"/>
<path fill-rule="evenodd" clip-rule="evenodd" d="M303.479 164.45L310.521 171.55L310.45 171.62L303.408 164.521L303.479 164.45Z" fill="#A9A9A9"/>
<path d="M306.5 139L314.727 153.25H298.273L306.5 139Z" fill="#141414"/>
<path fill-rule="evenodd" clip-rule="evenodd" d="M586 259C620.242 259 648 231.242 648 197C648 162.758 620.242 135 586 135C551.758 135 524 162.758 524 197C524 231.242 551.758 259 586 259ZM586 261C621.346 261 650 232.346 650 197C650 161.654 621.346 133 586 133C550.654 133 522 161.654 522 197C522 232.346 550.654 261 586 261Z" fill="#141414"/>
<path fill-rule="evenodd" clip-rule="evenodd" d="M586 237C608.091 237 626 219.091 626 197C626 174.909 608.091 157 586 157C563.909 157 546 174.909 546 197C546 219.091 563.909 237 586 237ZM586 239C609.196 239 628 220.196 628 197C628 173.804 609.196 155 586 155C562.804 155 544 173.804 544 197C544 220.196 562.804 239 586 239Z" fill="#141414"/>
<path d="M595 197C595 201.971 590.971 206 586 206C581.029 206 577 201.971 577 197C577 192.029 581.029 188 586 188C590.971 188 595 192.029 595 197Z" fill="#141414"/>
<path d="M581.272 200.914L585 202.5L546 291.115L543 291.115L581.272 200.914Z" fill="#141414"/>
<path d="M590.728 202.001L587 203.587L626 292.202L629 292.202L590.728 202.001Z" fill="#141414"/>
<path fill-rule="evenodd" clip-rule="evenodd" d="M586 197L543 151L543.73 150.317L586.73 196.317L586 197Z" fill="#141414"/>
<path fill-rule="evenodd" clip-rule="evenodd" d="M586 195.967L586.456 133L587.456 133.007L587 195.974L586 195.967Z" fill="#141414"/>
<path fill-rule="evenodd" clip-rule="evenodd" d="M585 197.187L627.799 151L628.532 151.68L585.733 197.867L585 197.187Z" fill="#141414"/>
<path fill-rule="evenodd" clip-rule="evenodd" d="M587 195.969L649.843 192L649.906 192.998L587.063 196.967L587 195.969Z" fill="#141414"/>
<path fill-rule="evenodd" clip-rule="evenodd" d="M585 197L637.073 232.404L636.51 233.231L584.438 197.827L585 197Z" fill="#141414"/>
<path fill-rule="evenodd" clip-rule="evenodd" d="M586.546 198L586 260.966L585 260.957L585.546 197.991L586.546 198Z" fill="#141414"/>
<path fill-rule="evenodd" clip-rule="evenodd" d="M586.605 195.869L542.88 241.181L542.161 240.487L585.885 195.175L586.605 195.869Z" fill="#141414"/>
<path fill-rule="evenodd" clip-rule="evenodd" d="M585.779 197.097L522.853 199.402L522.816 198.403L585.742 196.097L585.779 197.097Z" fill="#141414"/>
<path d="M540 153C540 152.448 540.448 152 541 152H550C550.552 152 551 152.448 551 153V161C551 161.552 550.552 162 550 162H541C540.448 162 540 161.552 540 161V153Z" fill="#141414"/>
<path d="M582 137C582 136.448 582.448 136 583 136H592C592.552 136 593 136.448 593 137V145C593 145.552 592.552 146 592 146H583C582.448 146 582 145.552 582 145V137Z" fill="#141414"/>
<path d="M620 153C620 152.448 620.448 152 621 152H630C630.552 152 631 152.448 631 153V161C631 161.552 630.552 162 630 162H621C620.448 162 620 161.552 620 161V153Z" fill="#141414"/>
<path d="M643 195C643 194.448 643.448 194 644 194H653C653.552 194 654 194.448 654 195V203C654 203.552 653.552 204 653 204H644C643.448 204 643 203.552 643 203V195Z" fill="#141414"/>
<path d="M631 233C631 232.448 631.448 232 632 232H641C641.552 232 642 232.448 642 233V241C642 241.552 641.552 242 641 242H632C631.448 242 631 241.552 631 241V233Z" fill="#141414"/>
<path d="M580 258C580 257.448 580.448 257 581 257H590C590.552 257 591 257.448 591 258V266C591 266.552 590.552 267 590 267H581C580.448 267 580 266.552 580 266V258Z" fill="#141414"/>
<path d="M537 240C537 239.448 537.448 239 538 239H547C547.552 239 548 239.448 548 240V248C548 248.552 547.552 249 547 249H538C537.448 249 537 248.552 537 248V240Z" fill="#141414"/>
<path d="M518 201C518 200.448 518.448 200 519 200H528C528.552 200 529 200.448 529 201V209C529 209.552 528.552 210 528 210H519C518.448 210 518 209.552 518 209V201Z" fill="#141414"/>
<path d="M696 254H990V257H696V254Z" fill="#141414"/>
<path fill-rule="evenodd" clip-rule="evenodd" d="M989 255H697V256H989V255ZM696 254V257H990V254H696Z" fill="#141414"/>
<path d="M744 255H753V289H744V255Z" fill="#141414"/>
<path fill-rule="evenodd" clip-rule="evenodd" d="M752 256H745V288H752V256ZM744 255V289H753V255H744Z" fill="#141414"/>
<path d="M746 205H752V258H746V205Z" fill="#141414"/>
<path fill-rule="evenodd" clip-rule="evenodd" d="M751 206H747V257H751V206ZM746 205V258H752V205H746Z" fill="#141414"/>
<path d="M917 206H923V259H917V206Z" fill="#141414"/>
<path fill-rule="evenodd" clip-rule="evenodd" d="M922 207H918V258H922V207ZM917 206V259H923V206H917Z" fill="#141414"/>
<path d="M915 257H924V291H915V257Z" fill="#141414"/>
<path fill-rule="evenodd" clip-rule="evenodd" d="M923 258H916V290H923V258ZM915 257V291H924V257H915Z" fill="#141414"/>
<path fill-rule="evenodd" clip-rule="evenodd" d="M748.371 204.38L748.72 204.551C782.779 221.19 809.155 229.586 835.252 229.763C861.346 229.94 887.22 221.901 920.278 205.552L920.6 205.393L920.854 205.646C931.977 216.767 941.254 224.575 951.76 230.681C962.266 236.787 974.025 241.205 990.129 245.517L989.871 246.483C973.72 242.159 961.869 237.713 951.258 231.546C940.727 225.426 931.442 217.624 920.4 206.607C887.433 222.881 861.478 230.941 835.245 230.763C809.018 230.585 782.575 222.172 748.629 205.619C739.852 215.917 732.627 223.274 724.684 229.034C716.661 234.853 707.927 239.028 696.159 242.974L695.841 242.026C707.545 238.101 716.179 233.967 724.097 228.225C732.02 222.479 739.247 215.107 748.119 204.676L748.371 204.38Z" fill="#141414"/>
<path d="M658 160H718V289H658V160Z" fill="#222222"/>
<path fill-rule="evenodd" clip-rule="evenodd" d="M719 254V232H720V254H719Z" fill="black"/>
<path fill-rule="evenodd" clip-rule="evenodd" d="M727 254L727 227L728 227L728 254L727 254Z" fill="#141414"/>
<path fill-rule="evenodd" clip-rule="evenodd" d="M734 255L734 221L735 221L735 255L734 255Z" fill="#141414"/>
<path fill-rule="evenodd" clip-rule="evenodd" d="M741 255L741 213L742 213L742 255L741 255Z" fill="#141414"/>
<path fill-rule="evenodd" clip-rule="evenodd" d="M760 255L760 210L761 210L761 255L760 255Z" fill="#141414"/>
<path fill-rule="evenodd" clip-rule="evenodd" d="M760 255L760 210L761 210L761 255L760 255Z" fill="#141414"/>
<path fill-rule="evenodd" clip-rule="evenodd" d="M769 254L769 214L770 214L770 254L769 254Z" fill="#141414"/>
<path fill-rule="evenodd" clip-rule="evenodd" d="M780 254L780 219L781 219L781 254L780 254Z" fill="#141414"/>
<path fill-rule="evenodd" clip-rule="evenodd" d="M791 255L791 223L792 223L792 255L791 255Z" fill="#141414"/>
<path fill-rule="evenodd" clip-rule="evenodd" d="M802 254L802 225L803 225L803 254L802 254Z" fill="#141414"/>
<path fill-rule="evenodd" clip-rule="evenodd" d="M811 255L811 227L812 227L812 255L811 255Z" fill="#141414"/>
<path fill-rule="evenodd" clip-rule="evenodd" d="M820 255V229H821V255H820Z" fill="#141414"/>
<path fill-rule="evenodd" clip-rule="evenodd" d="M829 255L829 230L830 230L830 255L829 255Z" fill="#141414"/>
<path fill-rule="evenodd" clip-rule="evenodd" d="M838 255L838 230L839 230L839 255L838 255Z" fill="#141414"/>
<path fill-rule="evenodd" clip-rule="evenodd" d="M847 255L847 230L848 230L848 255L847 255Z" fill="#141414"/>
<path fill-rule="evenodd" clip-rule="evenodd" d="M855 255L855 229L856 229L856 255L855 255Z" fill="#141414"/>
<path fill-rule="evenodd" clip-rule="evenodd" d="M864 255L864 227L865 227L865 255L864 255Z" fill="#141414"/>
<path fill-rule="evenodd" clip-rule="evenodd" d="M874 255L874 225L875 225L875 255L874 255Z" fill="#141414"/>
<path fill-rule="evenodd" clip-rule="evenodd" d="M883 255L883 222L884 222L884 255L883 255Z" fill="#141414"/>
<path fill-rule="evenodd" clip-rule="evenodd" d="M893 256L893 218L894 218L894 256L893 256Z" fill="#141414"/>
<path fill-rule="evenodd" clip-rule="evenodd" d="M903 256L903 214L904 214L904 256L903 256Z" fill="#141414"/>
<path fill-rule="evenodd" clip-rule="evenodd" d="M914 256L914 209L915 209L915 256L914 256Z" fill="#141414"/>
<path fill-rule="evenodd" clip-rule="evenodd" d="M932 255L932 217L933 217L933 255L932 255Z" fill="#141414"/>
<path fill-rule="evenodd" clip-rule="evenodd" d="M942 256L942 224L943 224L943 256L942 256Z" fill="#141414"/>
<path fill-rule="evenodd" clip-rule="evenodd" d="M952 256L952 231L953 231L953 256L952 256Z" fill="#141414"/>
<path fill-rule="evenodd" clip-rule="evenodd" d="M963 256L963 237L964 237L964 256L963 256Z" fill="#141414"/>
<path fill-rule="evenodd" clip-rule="evenodd" d="M973 255L973 241L974 241L974 255L973 255Z" fill="#141414"/>
<path fill-rule="evenodd" clip-rule="evenodd" d="M981 255V243H982V255H981Z" fill="#141414"/>
<path d="M329 73H359V84H329V73Z" fill="#222222"/>
<path d="M689 59C689 57.8954 689.895 57 691 57H729C730.105 57 731 57.8954 731 59V287C731 288.105 730.105 289 729 289H691C689.895 289 689 288.105 689 287V59Z" fill="#222222"/>
<path d="M331 70H357V74H331V70Z" fill="#222222"/>
<path d="M332 69H356V70H332V69Z" fill="#222222"/>
<path d="M0 289H990V292H0V289Z" fill="#141414"/>
</svg>
