<svg width="990" height="366" viewBox="0 0 990 366" fill="none" xmlns="http://www.w3.org/2000/svg">
<path d="M45 238C45 237.448 45.4477 237 46 237H104C104.552 237 105 237.448 105 238V365C105 365.552 104.552 366 104 366H46C45.4477 366 45 365.552 45 365V238Z" fill="#222222"/>
<path d="M45 238C45 237.448 45.4477 237 46 237H104C104.552 237 105 237.448 105 238V365C105 365.552 104.552 366 104 366H46C45.4477 366 45 365.552 45 365V238Z" fill="#222222"/>
<path d="M12 274C12 273.448 12.4477 273 13 273H71C71.5523 273 72 273.448 72 274V361C72 361.552 71.5523 362 71 362H13C12.4477 362 12 361.552 12 361V274Z" fill="#222222"/>
<path d="M114 307C114 306.448 114.448 306 115 306H164C164.552 306 165 306.448 165 307V363C165 363.552 164.552 364 164 364H115C114.448 364 114 363.552 114 363V307Z" fill="#222222"/>
<path d="M344 274H506V366H344V274Z" fill="#222222"/>
<path d="M224 118H273V365H224V118Z" fill="#222222"/>
<path d="M371 365.5H422V155L414.25 150V131L406.5 125V107.926L371 86V365.5Z" fill="#141414"/>
<path d="M321 155H366V366H321V155Z" fill="#222222"/>
<path d="M393 237H453V366H393V237Z" fill="#222222"/>
<path d="M479.935 112.943C479.971 112.419 480.408 112 480.933 112H539.095C539.609 112 540.04 112.401 540.091 112.912C550.159 214.08 550.549 269.498 540.099 365.098C540.043 365.605 539.614 366 539.104 366H480.937C480.41 366 479.973 365.58 479.938 365.054C473.809 270.68 472.842 215.761 479.935 112.943Z" fill="#222222"/>
<path d="M569 170.605C573.113 165.764 576.91 161.297 580.5 157.072C597.361 137.231 609.682 122.732 629 100V364H569V170.605Z" fill="#222222"/>
<path d="M580.5 157.072L629 100H580.5V157.072Z" fill="#222222"/>
<path d="M378 35H381V104H378V35Z" fill="#141414"/>
<path d="M380 0H379V69H380V0Z" fill="#141414"/>
<path d="M50 292C50 291.448 50.4477 291 51 291H65C65.5523 291 66 291.448 66 292V363C66 363.552 65.5523 364 65 364H51C50.4477 364 50 363.552 50 363V292Z" fill="#141414"/>
<path d="M55 281C55 280.448 55.4477 280 56 280H70C70.5523 280 71 280.448 71 281V352C71 352.552 70.5523 353 70 353H56C55.4477 353 55 352.552 55 352V281Z" fill="#141414"/>
<path d="M58 272C58 271.448 58.4477 271 59 271H73C73.5523 271 74 271.448 74 272V343C74 343.552 73.5523 344 73 344H59C58.4477 344 58 343.552 58 343V272Z" fill="#141414"/>
<path d="M172 293C172 292.448 172.448 292 173 292H187C187.552 292 188 292.448 188 293V364C188 364.552 187.552 365 187 365H173C172.448 365 172 364.552 172 364V293Z" fill="#141414"/>
<path d="M167 279C167 278.448 167.448 278 168 278H182C182.552 278 183 278.448 183 279V350C183 350.552 182.552 351 182 351H168C167.448 351 167 350.552 167 350V279Z" fill="#141414"/>
<path d="M164 272C164 271.448 164.448 271 165 271H179C179.552 271 180 271.448 180 272V343C180 343.552 179.552 344 179 344H165C164.448 344 164 343.552 164 343V272Z" fill="#141414"/>
<path d="M61 262H177V366H61V262Z" fill="#141414"/>
<path d="M624.5 190C628.176 190 664.84 188.159 678.084 217.5C679.251 220.084 681 221.5 681 226C681 230.5 681 364 681 364H621C621 364 621 202 621 199.5C621 197 620.5 190 624.5 190Z" fill="#141414"/>
<path d="M321 146H359V159H321V146Z" fill="#222222"/>
<path d="M689.163 132.601C689.069 131.678 689.619 130.784 690.5 130.491C705.521 125.498 714.565 125.775 729.618 130.554C730.443 130.816 731 131.585 731 132.45V361C731 362.105 730.105 363 729 363H691.08C689.945 363 689.038 362.031 689.084 360.896C692.488 276.961 699.653 236.478 689.163 132.601Z" fill="#222222"/>
<path d="M689.163 132.601C689.069 131.678 689.619 130.784 690.5 130.491C705.521 125.498 714.565 125.775 729.618 130.554C730.443 130.816 731 131.585 731 132.45V361C731 362.105 730.105 363 729 363H691.08C689.945 363 689.038 362.031 689.084 360.896C692.488 276.961 699.653 236.478 689.163 132.601Z" fill="#141414"/>
<path d="M321 143H357V149H321V143Z" fill="#222222"/>
<path d="M332 143H356V144H332V143Z" fill="#222222"/>
<path d="M0 363H990V366H0V363Z" fill="#141414"/>
<path d="M840.098 363.251L831.133 317.624C846.037 330.79 852.256 343.845 848.062 357.1C847.092 360.164 843.734 361.008 840.098 363.251Z" stroke="#141414" stroke-width="2"/>
<path d="M885.087 364.002L894.052 318.375C879.148 331.541 872.929 344.596 877.123 357.852C878.092 360.915 881.451 361.759 885.087 364.002Z" stroke="#141414" stroke-width="2"/>
<path d="M833 325.764C857.673 316.277 870.761 316.924 893 326.733M833.992 333.031C858.665 323.544 868.761 324.191 891 334" stroke="#141414"/>
<rect x="832" y="355" width="22" height="10" fill="#141414"/>
<rect x="868" y="355" width="22" height="10" fill="#141414"/>
<g clip-path="url(#clip0_82_386)">
<path d="M810.572 325.82C810.572 325.818 810.572 325.817 810.572 325.817C810.572 325.817 810.572 325.818 810.572 325.82C810.572 325.821 810.572 325.822 810.572 325.822C810.572 325.822 810.572 325.821 810.572 325.82ZM810.572 325.82C810.573 325.811 810.581 325.781 810.619 325.737C810.674 325.674 810.819 325.564 811.045 325.564C811.27 325.564 811.416 325.674 811.47 325.737C811.508 325.781 811.516 325.811 811.517 325.82M810.572 325.82C810.573 325.828 810.581 325.858 810.619 325.902C810.674 325.965 810.819 326.075 811.045 326.075C811.27 326.075 811.416 325.965 811.47 325.902C811.508 325.858 811.516 325.828 811.517 325.82M811.517 325.82C811.518 325.821 811.518 325.822 811.518 325.822C811.518 325.822 811.517 325.821 811.517 325.82C811.517 325.818 811.518 325.817 811.518 325.817C811.518 325.817 811.518 325.818 811.517 325.82Z" fill="#141414" stroke="#141414" stroke-width="3.77953"/>
<path d="M809.208 322.868C809.207 322.866 809.207 322.865 809.207 322.865C809.207 322.865 809.207 322.866 809.207 322.868C809.207 322.869 809.207 322.87 809.207 322.87C809.207 322.87 809.207 322.869 809.208 322.868ZM809.208 322.868C809.209 322.859 809.217 322.829 809.254 322.785C809.309 322.722 809.455 322.612 809.68 322.612C809.906 322.612 810.051 322.722 810.106 322.785C810.144 322.829 810.151 322.859 810.153 322.868M809.208 322.868C809.209 322.876 809.217 322.906 809.254 322.95C809.309 323.013 809.455 323.123 809.68 323.123C809.906 323.123 810.051 323.013 810.106 322.95C810.144 322.906 810.151 322.876 810.153 322.868M810.153 322.868C810.153 322.869 810.153 322.87 810.153 322.87C810.153 322.87 810.153 322.869 810.153 322.868C810.153 322.866 810.153 322.865 810.153 322.865C810.153 322.865 810.153 322.866 810.153 322.868Z" fill="#141414" stroke="#141414" stroke-width="3.77953"/>
<path d="M816.76 328.533L817.346 324.188L818.08 330.395L818.519 325.895L819.399 330.084L818.813 322.327L816.467 323.257L816.76 328.533Z" fill="#141414" stroke="#141414" stroke-width="1.40897"/>
<path d="M817.068 321.841C817.825 319.895 819.126 317.9 821.021 317.465C822.915 317.029 825.126 317.762 826.576 318.956C828.026 320.151 829.596 323.141 829.596 323.141C829.596 323.141 826.983 321.512 825.576 321.034C824.17 320.556 822.201 319.521 820.418 320.295C818.634 321.068 816.116 326.675 816.116 326.675C816.116 326.675 816.311 323.788 817.068 321.841Z" fill="#141414" stroke="#141414" stroke-width="0.915254"/>
<path d="M816.116 326.675C817.227 324.212 818.198 321.438 820.268 319.805C822.558 318.82 824.393 319.041 825.803 320.435L829.596 323.141C826.82 322.51 824.33 320.953 821.166 321.585C818.887 322.029 817.785 324.463 816.116 326.675Z" fill="#141414" stroke="#141414" stroke-width="0.915254"/>
<path d="M826.367 323.982C825.869 321.611 825.012 319.181 823.765 318.651C822.518 318.12 821.062 319.013 820.107 320.468C819.153 321.922 818.12 325.565 818.12 325.565C818.12 325.565 819.84 323.581 820.766 322.999C821.691 322.417 822.988 321.156 824.162 322.098C825.336 323.04 826.994 329.87 826.994 329.87C826.994 329.87 826.866 326.353 826.367 323.982Z" fill="#141414" stroke="#141414" stroke-width="0.819617"/>
<path d="M826.994 329.87C826.263 326.869 825.623 323.491 824.261 321.502C822.753 320.302 821.545 320.57 820.617 322.269L818.12 325.565C819.947 324.797 821.586 322.9 823.669 323.669C825.17 324.21 825.895 327.176 826.994 329.87Z" fill="#141414" stroke="#141414" stroke-width="0.819617"/>
<path d="M801.18 362.54C801.478 360.516 803.526 358.202 804.107 356.25C808.117 345.074 810.994 333.356 818.12 323.839L819.491 323.929C811.871 336.446 809.931 349.779 808.876 362.655L801.18 362.54Z" fill="#141414" stroke="#141414" stroke-width="1.14948"/>
<path d="M813.981 321.962C811.998 321.582 809.523 321.72 807.621 323.367C805.719 325.014 804.355 327.663 803.953 329.819C803.551 331.974 804.287 335.302 804.287 335.302C804.287 335.302 805.372 331.724 806.231 330.032C807.091 328.34 808.041 325.757 810.082 324.419C812.124 323.082 818.12 323.839 818.12 323.839C818.12 323.839 815.964 322.342 813.981 321.962Z" fill="#141414" stroke="#141414" stroke-width="0.997484"/>
<path d="M817.938 330.574L817.188 326.368L816.25 332.377L815.687 328.021L814.562 332.077L815.312 324.565L818.313 325.467L817.938 330.574Z" fill="#141414" stroke="#141414" stroke-width="1.56802"/>
<path d="M818.12 323.839C815.482 323.51 812.748 322.861 809.872 323.982C807.256 325.704 805.857 327.676 805.627 329.909L804.287 335.302C806.198 332.146 807.229 328.734 810.34 325.926C812.573 323.898 815.183 324.218 818.12 323.839Z" fill="#141414" stroke="#141414" stroke-width="0.997484"/>
<path d="M822.258 321.962C824.241 321.582 826.716 321.72 828.618 323.367C830.52 325.014 831.884 327.663 832.286 329.819C832.688 331.974 831.952 335.302 831.952 335.302C831.952 335.302 830.867 331.724 830.008 330.032C829.149 328.34 828.198 325.757 826.157 324.419C824.115 323.082 818.12 323.839 818.12 323.839C818.12 323.839 820.275 322.342 822.258 321.962Z" fill="#141414" stroke="#141414" stroke-width="0.997484"/>
<path d="M818.12 323.839C820.757 323.51 823.492 322.861 826.367 323.982C828.983 325.704 830.382 327.676 830.612 329.909L831.952 335.302C830.041 332.146 829.01 328.734 825.899 325.926C823.667 323.898 821.056 324.218 818.12 323.839Z" fill="#141414" stroke="#141414" stroke-width="0.997484"/>
<path d="M808.355 332.779C807.399 331.577 806.788 329.953 807.783 328.395C808.777 326.836 810.885 325.423 812.811 324.729C814.738 324.035 818.12 323.839 818.12 323.839C818.12 323.839 815.046 325.26 813.697 326.155C812.348 327.05 810.179 328.184 809.52 329.77C808.861 331.356 811.378 335.069 811.378 335.069C811.378 335.069 809.31 333.981 808.355 332.779Z" fill="#141414" stroke="#141414" stroke-width="0.818203"/>
<path d="M811.378 335.069C810.275 333.434 808.839 331.802 809.042 329.722C809.894 327.688 811.347 326.389 813.399 325.79L818.12 323.839C815.695 325.707 812.763 327.06 811.029 329.632C809.772 331.48 810.858 333.099 811.378 335.069Z" fill="#141414" stroke="#141414" stroke-width="0.818203"/>
<path d="M821.543 320.842C823.332 319.903 825.741 319.317 828.036 320.343C830.33 321.368 832.397 323.509 833.401 325.456C834.406 327.403 834.658 330.803 834.658 330.803C834.658 330.803 832.59 327.692 831.282 326.321C829.973 324.951 828.32 322.753 825.981 322.064C823.642 321.375 818.12 323.839 818.12 323.839C818.12 323.839 819.753 321.781 821.543 320.842Z" fill="#141414" stroke="#141414" stroke-width="0.997484"/>
<path d="M818.12 323.839C820.551 322.759 822.982 321.345 826.057 321.584C829.057 322.475 830.963 323.957 831.824 326.028L834.658 330.803C831.921 328.335 829.953 325.367 826.168 323.581C823.448 322.287 821.04 323.35 818.12 323.839Z" fill="#141414" stroke="#141414" stroke-width="0.997484"/>
<path d="M815.557 319.9C814.061 318.502 811.875 317.295 809.398 317.719C806.92 318.143 804.384 319.736 802.924 321.411C801.464 323.086 800.369 326.401 800.369 326.401C800.369 326.401 803.149 323.844 804.759 322.821C806.369 321.798 808.519 320.041 810.955 319.964C813.391 319.886 818.12 323.769 818.12 323.769C818.12 323.769 817.053 321.298 815.557 319.9Z" fill="#141414" stroke="#141414" stroke-width="1.01104"/>
<path d="M818.12 323.768C816.037 322.064 814.038 320.027 811.002 319.467C807.875 319.574 805.66 320.553 804.307 322.388L800.369 326.401C803.636 324.658 806.284 322.217 810.394 321.424C813.351 320.843 815.416 322.525 818.12 323.768Z" fill="#141414" stroke="#141414" stroke-width="1.01104"/>
<path d="M818.755 325.499C818.755 325.478 818.76 325.402 818.843 325.301C818.929 325.197 819.144 325.027 819.478 325.027C819.812 325.027 820.027 325.197 820.113 325.301C820.195 325.402 820.201 325.478 820.201 325.499C820.201 325.52 820.195 325.596 820.113 325.696C820.027 325.801 819.812 325.97 819.478 325.97C819.144 325.97 818.929 325.801 818.843 325.696C818.76 325.596 818.755 325.52 818.755 325.499Z" fill="#141414" stroke="#141414" stroke-width="3.77953"/>
<path d="M822.679 330.99C823.819 330.047 824.833 328.765 824.585 327.515C824.337 326.265 823.18 325.116 821.923 324.541C820.666 323.966 818.12 323.768 818.12 323.768C818.12 323.768 820.019 324.935 820.763 325.663C821.507 326.39 822.804 327.318 822.783 328.585C822.763 329.853 819.58 332.771 819.58 332.771C819.58 332.771 821.54 331.933 822.679 330.99Z" fill="#141414" stroke="#141414" stroke-width="0.643067"/>
<path d="M816.796 325.656C816.796 325.635 816.802 325.559 816.885 325.458C816.971 325.354 817.186 325.184 817.519 325.184C817.853 325.184 818.068 325.354 818.154 325.458C818.237 325.559 818.243 325.635 818.243 325.656C818.243 325.677 818.237 325.753 818.154 325.853C818.068 325.958 817.853 326.127 817.519 326.127C817.186 326.127 816.971 325.958 816.885 325.853C816.802 325.753 816.796 325.677 816.796 325.656Z" fill="#141414" stroke="#141414" stroke-width="3.77953"/>
<path d="M819.58 332.771C820.977 331.487 822.631 330.208 823.169 328.554C823.19 326.928 822.501 325.878 821.115 325.377L818.12 323.768C819.369 325.283 821.183 326.393 821.664 328.457C822.018 329.941 820.639 331.213 819.58 332.771Z" fill="#141414" stroke="#141414" stroke-width="0.643067"/>
<path d="M813.314 331.173C812.942 330.588 812.745 329.676 813.265 328.523C813.786 327.369 814.798 326.11 815.696 325.334C816.593 324.559 818.12 323.839 818.12 323.839C818.12 323.839 816.673 325.273 816.025 326.073C815.378 326.873 814.351 327.967 813.98 329.079C813.609 330.19 814.561 332.077 814.561 332.077C814.561 332.077 813.686 331.759 813.314 331.173Z" fill="#141414" stroke="#141414" stroke-width="0.427651"/>
<path d="M814.562 332.077C814.145 331.245 813.578 330.475 813.767 329.133C814.246 327.707 814.96 326.634 815.909 325.897L818.12 323.839C816.943 325.439 815.563 326.806 814.663 328.726C814.012 330.108 814.422 330.932 814.562 332.077Z" fill="#141414" stroke="#141414" stroke-width="0.427651"/>
<path opacity="0.553" d="M808.875 362.655C809.61 354.956 810.385 347.266 812.431 339.83L806.663 358.392L805.915 362.576L808.875 362.655Z" fill="#141414" stroke="#141414"/>
<g filter="url(#filter0_f_82_386)">
<path d="M818.201 324.748C819.159 324.748 819.935 324.28 819.935 323.703C819.935 323.125 819.159 322.657 818.201 322.657C817.243 322.657 816.467 323.125 816.467 323.703C816.467 324.28 817.243 324.748 818.201 324.748Z" fill="#141414"/>
<path d="M818.046 323.703C818.046 323.454 818.118 323.25 818.201 323.105C818.284 323.25 818.356 323.454 818.356 323.703C818.356 323.951 818.284 324.155 818.201 324.3C818.118 324.155 818.046 323.951 818.046 323.703Z" stroke="#141414" stroke-width="3.77953"/>
</g>
</g>
<path d="M908.086 327.482C908.086 327.48 908.086 327.48 908.086 327.48C908.086 327.48 908.086 327.48 908.086 327.482C908.086 327.483 908.086 327.484 908.086 327.484C908.086 327.484 908.086 327.483 908.086 327.482ZM908.086 327.482C908.084 327.474 908.077 327.443 908.039 327.399C907.984 327.336 907.839 327.226 907.613 327.226C907.388 327.226 907.242 327.336 907.187 327.399C907.149 327.443 907.142 327.474 907.14 327.482M908.086 327.482C908.084 327.49 908.077 327.521 908.039 327.564C907.984 327.627 907.839 327.737 907.613 327.737C907.388 327.737 907.242 327.627 907.187 327.564C907.149 327.521 907.142 327.49 907.14 327.482M907.14 327.482C907.14 327.483 907.14 327.484 907.14 327.484C907.14 327.484 907.14 327.483 907.14 327.482C907.14 327.48 907.14 327.48 907.14 327.48C907.14 327.48 907.14 327.48 907.14 327.482Z" fill="#141414" stroke="#141414" stroke-width="3.77953"/>
<path d="M909.45 324.53C909.45 324.528 909.45 324.527 909.45 324.527C909.45 324.527 909.45 324.528 909.45 324.53C909.45 324.531 909.45 324.532 909.45 324.532C909.45 324.532 909.45 324.531 909.45 324.53ZM909.45 324.53C909.449 324.521 909.441 324.491 909.403 324.447C909.349 324.384 909.203 324.274 908.978 324.274C908.752 324.274 908.606 324.384 908.552 324.447C908.514 324.491 908.506 324.521 908.505 324.53M909.45 324.53C909.449 324.538 909.441 324.569 909.403 324.612C909.349 324.675 909.203 324.785 908.978 324.785C908.752 324.785 908.606 324.675 908.552 324.612C908.514 324.569 908.506 324.538 908.505 324.53M908.505 324.53C908.505 324.531 908.505 324.532 908.505 324.532C908.505 324.532 908.505 324.531 908.505 324.53C908.505 324.528 908.505 324.527 908.505 324.527C908.505 324.527 908.505 324.528 908.505 324.53Z" fill="#141414" stroke="#141414" stroke-width="3.77953"/>
<path d="M901.898 330.195L901.311 325.851L900.578 332.057L900.138 327.557L899.258 331.747L899.845 323.989L902.191 324.92L901.898 330.195Z" fill="#141414" stroke="#141414" stroke-width="1.40897"/>
<path d="M901.59 323.504C900.833 321.557 899.531 319.562 897.637 319.127C895.743 318.691 893.531 319.424 892.082 320.619C890.632 321.813 889.062 324.803 889.062 324.803C889.062 324.803 891.675 323.174 893.081 322.696C894.487 322.219 896.456 321.183 898.24 321.957C900.024 322.73 902.542 328.338 902.542 328.338C902.542 328.338 902.347 325.45 901.59 323.504Z" fill="#141414" stroke="#141414" stroke-width="0.915254"/>
<path d="M902.542 328.338C901.431 325.874 900.46 323.1 898.39 321.468C896.1 320.482 894.265 320.703 892.855 322.098L889.062 324.803C891.838 324.173 894.327 322.615 897.492 323.247C899.771 323.691 900.873 326.125 902.542 328.338Z" fill="#141414" stroke="#141414" stroke-width="0.915254"/>
<path d="M892.29 325.644C892.789 323.273 893.646 320.844 894.893 320.313C896.14 319.782 897.596 320.675 898.55 322.13C899.505 323.585 900.538 327.227 900.538 327.227C900.538 327.227 898.818 325.243 897.892 324.661C896.966 324.079 895.67 322.818 894.496 323.76C893.321 324.702 891.664 331.532 891.664 331.532C891.664 331.532 891.792 328.015 892.29 325.644Z" fill="#141414" stroke="#141414" stroke-width="0.819617"/>
<path d="M891.664 331.532C892.395 328.532 893.035 325.153 894.397 323.164C895.905 321.964 897.113 322.233 898.041 323.932L900.538 327.227C898.711 326.459 897.072 324.562 894.988 325.331C893.488 325.873 892.762 328.838 891.664 331.532Z" fill="#141414" stroke="#141414" stroke-width="0.819617"/>
<path d="M917.477 364.202C917.18 362.178 915.131 359.864 914.551 357.912C910.541 346.736 907.663 335.018 900.538 325.501L899.166 325.591C906.786 338.108 908.727 351.441 909.782 364.317L917.477 364.202Z" fill="#141414" stroke="#141414" stroke-width="1.14948"/>
<path d="M904.677 323.624C906.659 323.244 909.135 323.382 911.037 325.029C912.939 326.676 914.302 329.326 914.704 331.481C915.106 333.636 914.37 336.964 914.37 336.964C914.37 336.964 913.285 333.386 912.426 331.694C911.567 330.003 910.617 327.419 908.575 326.081C906.534 324.744 900.538 325.501 900.538 325.501C900.538 325.501 902.694 324.005 904.677 323.624Z" fill="#141414" stroke="#141414" stroke-width="0.997484"/>
<path d="M900.72 332.237L901.47 328.03L902.408 334.039L902.971 329.683L904.096 333.739L903.346 326.228L900.345 327.129L900.72 332.237Z" fill="#141414" stroke="#141414" stroke-width="1.56802"/>
<path d="M900.538 325.501C903.176 325.173 905.91 324.523 908.786 325.644C911.402 327.367 912.801 329.338 913.03 331.571L914.37 336.964C912.459 333.808 911.429 330.396 908.318 327.588C906.085 325.561 903.474 325.88 900.538 325.501Z" fill="#141414" stroke="#141414" stroke-width="0.997484"/>
<path d="M896.4 323.624C894.417 323.244 891.941 323.382 890.039 325.029C888.137 326.676 886.774 329.326 886.372 331.481C885.97 333.636 886.706 336.964 886.706 336.964C886.706 336.964 887.791 333.386 888.65 331.694C889.509 330.003 890.46 327.419 892.501 326.081C894.542 324.744 900.538 325.501 900.538 325.501C900.538 325.501 898.382 324.005 896.4 323.624Z" fill="#141414" stroke="#141414" stroke-width="0.997484"/>
<path d="M900.538 325.501C897.9 325.173 895.166 324.523 892.29 325.644C889.675 327.367 888.276 329.338 888.046 331.571L886.706 336.964C888.617 333.808 889.648 330.396 892.758 327.588C894.991 325.561 897.602 325.88 900.538 325.501Z" fill="#141414" stroke="#141414" stroke-width="0.997484"/>
<path d="M910.303 334.441C911.258 333.239 911.869 331.615 910.875 330.057C909.881 328.499 907.773 327.085 905.846 326.391C903.92 325.697 900.538 325.501 900.538 325.501C900.538 325.501 903.611 326.922 904.961 327.817C906.31 328.712 908.479 329.846 909.138 331.432C909.796 333.018 907.28 336.731 907.28 336.731C907.28 336.731 909.347 335.643 910.303 334.441Z" fill="#141414" stroke="#141414" stroke-width="0.818203"/>
<path d="M907.28 336.731C908.382 335.096 909.819 333.465 909.616 331.384C908.764 329.35 907.311 328.051 905.259 327.453L900.538 325.501C902.963 327.369 905.895 328.722 907.629 331.294C908.886 333.143 907.8 334.761 907.28 336.731Z" fill="#141414" stroke="#141414" stroke-width="0.818203"/>
<path d="M897.115 322.504C895.326 321.565 892.916 320.979 890.622 322.005C888.328 323.03 886.261 325.171 885.256 327.118C884.252 329.065 884 332.465 884 332.465C884 332.465 886.067 329.354 887.376 327.984C888.685 326.613 890.337 324.415 892.676 323.726C895.015 323.037 900.538 325.501 900.538 325.501C900.538 325.501 898.904 323.443 897.115 322.504Z" fill="#141414" stroke="#141414" stroke-width="0.997484"/>
<path d="M900.538 325.501C898.107 324.422 895.676 323.007 892.6 323.246C889.601 324.137 887.695 325.619 886.833 327.69L884 332.465C886.737 329.998 888.704 327.029 892.49 325.244C895.21 323.95 897.618 325.013 900.538 325.501Z" fill="#141414" stroke="#141414" stroke-width="0.997484"/>
<path d="M903.101 321.563C904.597 320.165 906.783 318.957 909.26 319.381C911.737 319.805 914.274 321.398 915.734 323.073C917.193 324.748 918.288 328.063 918.288 328.063C918.288 328.063 915.509 325.507 913.899 324.483C912.289 323.46 910.139 321.704 907.703 321.626C905.267 321.548 900.538 325.431 900.538 325.431C900.538 325.431 901.604 322.961 903.101 321.563Z" fill="#141414" stroke="#141414" stroke-width="1.01104"/>
<path d="M900.538 325.431C902.621 323.727 904.62 321.689 907.656 321.129C910.782 321.236 912.998 322.215 914.351 324.051L918.288 328.063C915.022 326.32 912.374 323.879 908.264 323.086C905.306 322.505 903.242 324.187 900.538 325.431Z" fill="#141414" stroke="#141414" stroke-width="1.01104"/>
<path d="M899.903 327.161C899.903 327.14 899.897 327.064 899.814 326.963C899.728 326.859 899.513 326.689 899.18 326.689C898.846 326.689 898.631 326.859 898.545 326.963C898.462 327.064 898.456 327.14 898.456 327.161C898.456 327.182 898.462 327.258 898.545 327.358C898.631 327.463 898.846 327.632 899.18 327.632C899.513 327.632 899.728 327.463 899.814 327.358C899.897 327.258 899.903 327.182 899.903 327.161Z" fill="#141414" stroke="#141414" stroke-width="3.77953"/>
<path d="M895.978 332.652C894.839 331.709 893.825 330.427 894.073 329.177C894.321 327.927 895.478 326.778 896.734 326.204C897.991 325.629 900.538 325.431 900.538 325.431C900.538 325.431 898.638 326.597 897.895 327.325C897.151 328.053 895.854 328.98 895.874 330.248C895.895 331.515 899.078 334.433 899.078 334.433C899.078 334.433 897.118 333.595 895.978 332.652Z" fill="#141414" stroke="#141414" stroke-width="0.643067"/>
<path d="M901.862 327.318C901.862 327.297 901.856 327.221 901.773 327.121C901.687 327.016 901.472 326.847 901.138 326.847C900.805 326.847 900.59 327.016 900.504 327.121C900.421 327.221 900.415 327.297 900.415 327.318C900.415 327.339 900.421 327.415 900.504 327.516C900.59 327.62 900.805 327.79 901.138 327.79C901.472 327.79 901.687 327.62 901.773 327.516C901.856 327.415 901.862 327.339 901.862 327.318Z" fill="#141414" stroke="#141414" stroke-width="3.77953"/>
<path d="M899.078 334.433C897.681 333.149 896.026 331.87 895.489 330.216C895.468 328.59 896.157 327.54 897.542 327.039L900.538 325.431C899.288 326.945 897.475 328.055 896.994 330.119C896.64 331.603 898.019 332.875 899.078 334.433Z" fill="#141414" stroke="#141414" stroke-width="0.643067"/>
<path d="M905.344 332.835C905.715 332.25 905.912 331.338 905.392 330.185C904.872 329.031 903.859 327.772 902.962 326.997C902.065 326.221 900.538 325.501 900.538 325.501C900.538 325.501 901.984 326.935 902.632 327.735C903.28 328.535 904.307 329.629 904.678 330.741C905.049 331.853 904.096 333.739 904.096 333.739C904.096 333.739 904.972 333.421 905.344 332.835Z" fill="#141414" stroke="#141414" stroke-width="0.427651"/>
<path d="M904.096 333.739C904.513 332.907 905.08 332.137 904.89 330.796C904.411 329.369 903.698 328.297 902.749 327.559L900.538 325.501C901.715 327.102 903.094 328.468 903.994 330.388C904.646 331.77 904.236 332.594 904.096 333.739Z" fill="#141414" stroke="#141414" stroke-width="0.427651"/>
<path opacity="0.553" d="M909.782 364.317C909.048 356.618 908.273 348.928 906.227 341.493L911.995 360.054L912.743 364.238L909.782 364.317Z" fill="#141414" stroke="#141414"/>
<g filter="url(#filter1_f_82_386)">
<path d="M900.457 326.411C899.499 326.411 898.722 325.942 898.722 325.365C898.722 324.787 899.499 324.319 900.457 324.319C901.415 324.319 902.191 324.787 902.191 325.365C902.191 325.942 901.415 326.411 900.457 326.411Z" fill="#141414"/>
<path d="M900.612 325.365C900.612 325.116 900.54 324.912 900.457 324.767C900.374 324.912 900.301 325.116 900.301 325.365C900.301 325.613 900.374 325.817 900.457 325.962C900.54 325.817 900.612 325.613 900.612 325.365Z" stroke="#141414" stroke-width="3.77953"/>
</g>
<path d="M625 194V209H667C654.455 199.546 645.862 195.701 625 194Z" fill="#222222"/>
<rect x="107" y="243" width="24" height="120" fill="#141414"/>
<path d="M192.793 362V347.768H197.881V345.992H185.737V347.768H190.801V362H192.793ZM213.872 362V345.992H211.88V352.88H202.52V345.992H200.528V362H202.52V354.656H211.88V362H213.872ZM228.102 362V360.224H219.606V354.704H227.934V352.928H219.606V347.768H228.102V345.992H217.614V362H228.102ZM242.673 362.288C246.993 362.288 248.577 359.888 248.577 357.584C248.577 351.608 239.097 353.672 239.097 350.072C239.097 348.56 240.489 347.528 242.385 347.528C244.137 347.528 245.817 348.104 247.017 349.448L248.217 347.984C246.873 346.568 244.977 345.728 242.553 345.728C239.385 345.728 237.033 347.552 237.033 350.192C237.033 355.904 246.513 353.6 246.513 357.728C246.513 358.976 245.601 360.512 242.745 360.512C240.489 360.512 238.761 359.408 237.729 358.208L236.529 359.744C237.849 361.232 239.913 362.288 242.673 362.288ZM257.363 362V347.768H262.451V345.992H250.307V347.768H255.371V362H257.363ZM277.185 362L270.753 345.992H268.281L261.825 362H264.105L265.521 358.424H273.489L274.905 362H277.185ZM272.913 356.672H266.121L269.505 348.032L272.913 356.672ZM290.894 362L286.574 355.472C288.758 355.28 290.75 353.696 290.75 350.816C290.75 347.864 288.638 345.992 285.71 345.992H279.278V362H281.27V355.64H284.486L288.542 362H290.894ZM285.47 353.888H281.27V347.768H285.47C287.366 347.768 288.686 348.992 288.686 350.816C288.686 352.616 287.366 353.888 285.47 353.888Z" fill="#979797"/>
<path d="M919.133 363.168C921.653 363.168 922.577 361.768 922.577 360.424C922.577 356.938 917.047 358.142 917.047 356.042C917.047 355.16 917.859 354.558 918.965 354.558C919.987 354.558 920.967 354.894 921.667 355.678L922.367 354.824C921.583 353.998 920.477 353.508 919.063 353.508C917.215 353.508 915.843 354.572 915.843 356.112C915.843 359.444 921.373 358.1 921.373 360.508C921.373 361.236 920.841 362.132 919.175 362.132C917.859 362.132 916.851 361.488 916.249 360.788L915.549 361.684C916.319 362.552 917.523 363.168 919.133 363.168ZM928.12 363.168C930.654 363.168 931.942 361.684 931.942 359.36V353.662H930.766V359.346C930.766 361.054 929.842 362.132 928.12 362.132C926.398 362.132 925.488 361.054 925.488 359.346V353.662H924.312V359.374C924.312 361.67 925.6 363.168 928.12 363.168ZM940.904 363L938.384 359.192C939.658 359.08 940.82 358.156 940.82 356.476C940.82 354.754 939.588 353.662 937.88 353.662H934.128V363H935.29V359.29H937.166L939.532 363H940.904ZM937.74 358.268H935.29V354.698H937.74C938.846 354.698 939.616 355.412 939.616 356.476C939.616 357.526 938.846 358.268 937.74 358.268ZM943.821 363V358.744H948.679V357.708H943.821V354.698H948.777V353.662H942.659V363H943.821ZM956.488 363V361.964H951.532V358.744H956.39V357.708H951.532V354.698H956.488V353.662H950.37V363H956.488ZM965.117 363L962.597 359.192C963.871 359.08 965.033 358.156 965.033 356.476C965.033 354.754 963.801 353.662 962.093 353.662H958.341V363H959.503V359.29H961.379L963.745 363H965.117ZM961.953 358.268H959.503V354.698H961.953C963.059 354.698 963.829 355.412 963.829 356.476C963.829 357.526 963.059 358.268 961.953 358.268ZM969.896 363.168C972.416 363.168 973.34 361.768 973.34 360.424C973.34 356.938 967.81 358.142 967.81 356.042C967.81 355.16 968.622 354.558 969.728 354.558C970.75 354.558 971.73 354.894 972.43 355.678L973.13 354.824C972.346 353.998 971.24 353.508 969.826 353.508C967.978 353.508 966.606 354.572 966.606 356.112C966.606 359.444 972.136 358.1 972.136 360.508C972.136 361.236 971.604 362.132 969.938 362.132C968.622 362.132 967.614 361.488 967.012 360.788L966.312 361.684C967.082 362.552 968.286 363.168 969.896 363.168Z" fill="#B1B1B1"/>
<defs>
<filter id="filter0_f_82_386" x="806.15" y="312.341" width="24.1012" height="22.7242" filterUnits="userSpaceOnUse" color-interpolation-filters="sRGB">
<feFlood flood-opacity="0" result="BackgroundImageFix"/>
<feBlend mode="normal" in="SourceGraphic" in2="BackgroundImageFix" result="shape"/>
<feGaussianBlur stdDeviation="5.15811" result="effect1_foregroundBlur_82_386"/>
</filter>
<filter id="filter1_f_82_386" x="888.406" y="314.003" width="24.1012" height="22.7242" filterUnits="userSpaceOnUse" color-interpolation-filters="sRGB">
<feFlood flood-opacity="0" result="BackgroundImageFix"/>
<feBlend mode="normal" in="SourceGraphic" in2="BackgroundImageFix" result="shape"/>
<feGaussianBlur stdDeviation="5.15811" result="effect1_foregroundBlur_82_386"/>
</filter>
<clipPath id="clip0_82_386">
<rect width="37" height="48" fill="white" transform="translate(799 316)"/>
</clipPath>
</defs>
</svg>
