<svg width="1920" height="6589" viewBox="0 0 1920 6589" fill="none" xmlns="http://www.w3.org/2000/svg">
<mask id="mask0_145_4" style="mask-type:alpha" maskUnits="userSpaceOnUse" x="0" y="0" width="1920" height="6589">
<rect width="1920" height="6589" fill="#C4C4C4"/>
</mask>
<g mask="url(#mask0_145_4)">
<rect width="1920" height="6310" fill="#0A0A0A"/>
<rect x="285" width="1372" height="1298" fill="#0A0A0A"/>
<g filter="url(#filter0_b_145_4)">
<rect x="1258.27" y="-831" width="697" height="873" rx="11" transform="rotate(26.4074 1258.27 -831)" fill="url(#paint0_linear_145_4)"/>
</g>
<rect x="-231.926" y="192.675" width="697" height="873" rx="6" transform="rotate(26.4074 -231.926 192.675)" fill="url(#paint1_linear_145_4)" fill-opacity="0.02"/>
<rect x="-134.783" y="2667" width="697" height="873" rx="6" transform="rotate(2.31194 -134.783 2667)" fill="url(#paint2_linear_145_4)" fill-opacity="0.02"/>
<rect x="634.173" y="4824.43" width="697" height="873" rx="6" transform="rotate(105.85 634.173 4824.43)" fill="url(#paint3_linear_145_4)" fill-opacity="0.02"/>
<rect x="1175" y="5927.32" width="697" height="873" rx="6" transform="rotate(-38.3355 1175 5927.32)" fill="url(#paint4_linear_145_4)" fill-opacity="0.02"/>
<rect x="1517" y="1935.82" width="462.48" height="639.796" rx="6" transform="rotate(-29.3694 1517 1935.82)" fill="url(#paint5_linear_145_4)" fill-opacity="0.02"/>
</g>
<defs>
<filter id="filter0_b_145_4" x="773.742" y="-927.258" width="1205.05" height="1284.41" filterUnits="userSpaceOnUse" color-interpolation-filters="sRGB">
<feFlood flood-opacity="0" result="BackgroundImageFix"/>
<feGaussianBlur in="BackgroundImageFix" stdDeviation="50"/>
<feComposite in2="SourceAlpha" operator="in" result="effect1_backgroundBlur_145_4"/>
<feBlend mode="normal" in="SourceGraphic" in2="effect1_backgroundBlur_145_4" result="shape"/>
</filter>
<linearGradient id="paint0_linear_145_4" x1="1606.77" y1="-831" x2="1606.77" y2="42" gradientUnits="userSpaceOnUse">
<stop offset="0.64313" stop-color="#2C2C2C" stop-opacity="0.4"/>
<stop offset="1" stop-color="#2C2C2C" stop-opacity="0.49"/>
</linearGradient>
<linearGradient id="paint1_linear_145_4" x1="116.574" y1="192.675" x2="116.574" y2="1065.67" gradientUnits="userSpaceOnUse">
<stop stop-color="#B9B9B9"/>
<stop offset="1" stop-color="#B9B9B9" stop-opacity="0"/>
</linearGradient>
<linearGradient id="paint2_linear_145_4" x1="213.717" y1="2667" x2="213.717" y2="3540" gradientUnits="userSpaceOnUse">
<stop stop-color="#B9B9B9"/>
<stop offset="1" stop-color="#B9B9B9" stop-opacity="0"/>
</linearGradient>
<linearGradient id="paint3_linear_145_4" x1="982.673" y1="4824.43" x2="982.673" y2="5697.43" gradientUnits="userSpaceOnUse">
<stop stop-color="#B9B9B9"/>
<stop offset="1" stop-color="#B9B9B9" stop-opacity="0"/>
</linearGradient>
<linearGradient id="paint4_linear_145_4" x1="1523.5" y1="5927.33" x2="1523.5" y2="6800.33" gradientUnits="userSpaceOnUse">
<stop stop-color="#B9B9B9"/>
<stop offset="1" stop-color="#B9B9B9" stop-opacity="0"/>
</linearGradient>
<linearGradient id="paint5_linear_145_4" x1="1748.24" y1="1935.82" x2="1748.24" y2="2575.61" gradientUnits="userSpaceOnUse">
<stop stop-color="#B9B9B9"/>
<stop offset="1" stop-color="#B9B9B9" stop-opacity="0"/>
</linearGradient>
</defs>
</svg>
