<svg width="80" height="80" viewBox="0 0 80 80" fill="none" xmlns="http://www.w3.org/2000/svg">
<g clip-path="url(#clip0_48_1546)">
<path d="M63.5 0.514465H0.5V65.3376H63.5V0.514465Z" stroke="#3EFFDC" stroke-width="4"/>
<path d="M79.5 14.6624H16.5V79.4855H79.5V14.6624Z" stroke="#3EFFDC" stroke-width="4"/>
<path d="M39.0155 30.611V54.0193H33.922V30.611H39.0155ZM52.6095 30.611L43.703 42.3151L38.5155 48.1029L37.5937 43.2314L41.0155 38.1834L46.3595 30.611H52.6095ZM46.703 54.0193L40.422 43.3281L44.297 40.2251L52.7345 54.0193H46.703Z" fill="#3EFFDC"/>
<path d="M41.0155 32.926V56.3344H35.922V32.926H41.0155ZM54.6095 32.926L45.703 44.6302L40.5155 50.418L39.5937 45.5465L43.0155 40.4985L48.3595 32.926H54.6095ZM48.703 56.3344L42.422 45.6432L46.297 42.5402L54.7345 56.3344H48.703Z" fill="white"/>
</g>
<defs>
<clipPath id="clip0_48_1546">
<rect width="80" height="80" fill="white"/>
</clipPath>
</defs>
</svg>
