<svg width="128" height="128" viewBox="0 0 128 128" fill="none" xmlns="http://www.w3.org/2000/svg">
<path d="M65.6413 15.3636L65.914 12.3636L63.4254 14.1023L62.0618 11.7159L64.789 10.4545L62.0617 9.19318L63.4254 6.80682L65.914 8.54545L65.6413 5.54545L68.3686 5.54545L68.0958 8.54545L70.5845 6.80681L71.9481 9.19318L69.2208 10.4545L71.9481 11.7159L70.5845 14.1023L68.0958 12.3636L68.3686 15.3636L65.6413 15.3636Z" fill="black" style="fill:black;fill-opacity:1;"/>
<path d="M94.6685 20.5073C94.9132 19.9925 94.9502 19.5022 94.7797 19.0363C94.614 18.5732 94.199 18.1499 93.5347 17.7664C93.1116 17.5221 92.7348 17.3735 92.4045 17.3206C92.082 17.2656 91.8071 17.2873 91.5797 17.3856C91.3523 17.484 91.1723 17.6424 91.0395 17.861C90.9245 18.0374 90.8614 18.2207 90.8499 18.4109C90.8463 18.5991 90.894 18.8005 90.9931 19.0152C91.0951 19.225 91.2495 19.4519 91.4563 19.6959C91.6631 19.94 91.9248 20.2026 92.2414 20.4838L93.328 21.4654C94.0622 22.1255 94.6432 22.7726 95.071 23.4067C95.4988 24.0407 95.7885 24.664 95.9401 25.2764C96.0945 25.8839 96.1197 26.4823 96.0156 27.0717C95.9164 27.664 95.7031 28.2494 95.3756 28.8279C94.7968 29.819 94.0626 30.517 93.1728 30.9218C92.283 31.3266 91.2768 31.4444 90.1542 31.2752C89.0365 31.1088 87.8379 30.6563 86.5586 29.9177C85.2448 29.1592 84.2105 28.3029 83.4557 27.3488C82.7059 26.3976 82.2933 25.3622 82.2179 24.2427C82.1503 23.1212 82.4791 21.9267 83.2043 20.6592L87.1014 22.9092C86.859 23.386 86.7502 23.8415 86.775 24.2757C86.7999 24.7099 86.9524 25.1162 87.2326 25.4945C87.5178 25.8756 87.9211 26.2168 88.4427 26.5179C88.8807 26.7707 89.2785 26.9283 89.6362 26.9905C89.994 27.0527 90.3045 27.0318 90.5678 26.928C90.8312 26.8242 91.0363 26.6507 91.1833 26.4075C91.3119 26.1734 91.3521 25.9276 91.3039 25.6701C91.2635 25.4106 91.1182 25.1168 90.8681 24.7887C90.6208 24.4556 90.2522 24.0657 89.7622 23.6188L88.444 22.4247C87.2732 21.3617 86.4976 20.2676 86.1171 19.1425C85.7444 18.0154 85.9014 16.8628 86.5881 15.6847C87.1372 14.7223 87.8774 14.0311 88.8089 13.611C89.7481 13.1888 90.7942 13.0416 91.9473 13.1693C93.1053 13.2999 94.2822 13.7104 95.4779 14.4007C96.6982 15.1053 97.6358 15.9189 98.2906 16.8415C98.9455 17.7641 99.2995 18.7361 99.3527 19.7575C99.4137 20.7769 99.1612 21.7825 98.5951 22.7744L94.6685 20.5073Z" fill="black" style="fill:black;fill-opacity:1;"/>
<path d="M100.548 45.7796C99.8374 44.5494 99.473 43.3558 99.4545 42.1987C99.4408 41.0387 99.737 39.9722 100.343 38.999C100.954 38.023 101.84 37.1998 103.001 36.5294C104.162 35.8589 105.316 35.5046 106.462 35.4663C107.612 35.4253 108.684 35.7021 109.677 36.2967C110.675 36.8884 111.529 37.7994 112.239 39.0296C112.881 40.1416 113.235 41.2201 113.3 42.2649C113.373 43.3118 113.172 44.2708 112.697 45.1419C112.228 46.0101 111.502 46.7308 110.521 47.3039L108.339 43.5249C108.903 43.127 109.257 42.6934 109.399 42.2241C109.549 41.7569 109.493 41.297 109.232 40.8443C109.028 40.49 108.745 40.2397 108.385 40.0933C108.03 39.944 107.603 39.9149 107.105 40.0059C106.611 40.0941 106.054 40.3172 105.434 40.6751C104.814 41.0331 104.34 41.4052 104.012 41.7915C103.689 42.1749 103.501 42.5591 103.447 42.9441C103.399 43.3263 103.477 43.6946 103.682 44.0488C103.855 44.349 104.077 44.5749 104.349 44.7267C104.625 44.8755 104.939 44.9432 105.292 44.9296C105.653 44.9182 106.039 44.8136 106.45 44.6158L108.631 48.3948C107.624 48.9568 106.621 49.2308 105.622 49.2169C104.629 49.2002 103.696 48.9024 102.823 48.3234C101.954 47.7494 101.195 46.9015 100.548 45.7796Z" fill="black" style="fill:black;fill-opacity:1;"/>
<path d="M105 61.9753L118.091 61.9753L118.091 66.5435L115.602 66.5435L115.602 66.6798C116.523 66.9185 117.196 67.2963 117.622 67.8134C118.048 68.3361 118.261 68.9469 118.261 69.6457C118.261 69.8503 118.244 70.052 118.21 70.2509C118.182 70.4554 118.139 70.6514 118.082 70.8389L114.068 70.8389C114.148 70.606 114.207 70.319 114.247 69.9781C114.287 69.6372 114.307 69.3446 114.307 69.1003C114.307 68.6401 114.202 68.2253 113.991 67.856C113.787 67.4923 113.497 67.2054 113.122 66.9952C112.753 66.785 112.318 66.6798 111.818 66.6798L105 66.6798L105 61.9753Z" fill="black" style="fill:black;fill-opacity:1;"/>
<path d="M98.2319 86.2312C98.9422 85.0011 99.7937 84.0887 100.786 83.4941C101.784 82.9023 102.856 82.6255 104.002 82.6638C105.152 82.7048 106.308 83.0606 107.47 83.731C108.631 84.4015 109.515 85.2233 110.121 86.1964C110.731 87.1724 111.028 88.2389 111.009 89.3961C110.995 90.556 110.633 91.7511 109.923 92.9812C109.213 94.2114 108.359 95.1223 107.361 95.7141C106.368 96.3087 105.297 96.5855 104.146 96.5444C103 96.5062 101.847 96.1519 100.686 95.4814C99.5243 94.811 98.6382 93.9878 98.0273 93.0118C97.4213 92.0386 97.1252 90.9721 97.1388 89.8121C97.1573 88.655 97.5217 87.4614 98.2319 86.2312ZM101.226 87.9994C101.027 88.3438 100.971 88.7083 101.058 89.0928C101.144 89.4772 101.361 89.8619 101.71 90.2469C102.059 90.6318 102.528 90.9947 103.118 91.3356C103.714 91.6794 104.263 91.9045 104.766 92.0111C105.273 92.1205 105.715 92.1164 106.091 91.999C106.467 91.8816 106.755 91.6506 106.954 91.3062C107.164 90.9421 107.229 90.5629 107.148 90.1685C107.067 89.7742 106.853 89.3846 106.504 88.9997C106.161 88.6176 105.691 88.2547 105.096 87.9109C104.505 87.57 103.956 87.3448 103.449 87.2355C102.941 87.1261 102.496 87.135 102.114 87.2623C101.733 87.3896 101.437 87.6353 101.226 87.9994Z" fill="black" style="fill:black;fill-opacity:1;"/>
<path d="M89.9776 116.499L81.2503 101.383L85.3246 99.031L94.0519 114.147L89.9776 116.499Z" fill="black" style="fill:black;fill-opacity:1;"/>
<path d="M60.2475 122.455L60.2475 105L64.9521 105L64.9521 122.455L60.2475 122.455Z" fill="black" style="fill:black;fill-opacity:1;"/>
<path d="M38.2604 105.3L36.5242 107.761L39.5488 107.5L39.5365 110.249L36.544 109.977L38.2752 112.433L35.901 113.818L34.6151 111.068L33.3513 113.803L30.9894 112.439L32.7256 109.977L29.7011 110.239L29.7133 107.49L32.7059 107.761L30.9747 105.305L33.3488 103.92L34.6347 106.671L35.8985 103.936L38.2604 105.3Z" fill="black" style="fill:black;fill-opacity:1;"/>
<path d="M27.7904 83.2832L31.1483 89.0993L16.0322 97.8266L12.7084 92.0695C11.8107 90.5146 11.3377 88.9966 11.2895 87.5154C11.2336 86.0321 11.5939 84.6563 12.3706 83.3878C13.1394 82.1172 14.3112 81.0274 15.8858 80.1183C17.4603 79.2092 18.9911 78.7355 20.4779 78.6972C21.9599 78.6617 23.3287 79.0326 24.5845 79.81C25.8354 80.5902 26.904 81.748 27.7904 83.2832ZM25.2952 87.0069L24.3918 85.4422C23.96 84.6942 23.4716 84.1266 22.9265 83.7393C22.3785 83.3471 21.7298 83.1837 20.9802 83.249C20.2278 83.3095 19.3251 83.6437 18.2721 84.2516C17.2191 84.8596 16.4798 85.4767 16.0541 86.103C15.6255 86.7244 15.4484 87.3778 15.5226 88.0632C15.594 88.7436 15.8569 89.4775 16.3115 90.2648L17.1467 91.7115L25.2952 87.0069Z" fill="black" style="fill:black;fill-opacity:1;"/>
<path d="M23.2386 61.8631C23.2386 63.2835 22.9574 64.4994 22.3949 65.5108C21.8267 66.5221 21.0369 67.2977 20.0256 67.8375C19.0085 68.3773 17.8295 68.6471 16.4886 68.6471C15.1477 68.6471 13.9716 68.3773 12.9602 67.8375C11.9432 67.2977 11.1534 66.5221 10.5909 65.5108C10.0227 64.4994 9.73864 63.2835 9.73864 61.863C9.73864 60.4426 10.0227 59.2267 10.5909 58.2153C11.1534 57.204 11.9432 56.4284 12.9602 55.8886C13.9716 55.3488 15.1477 55.079 16.4886 55.079C17.8296 55.079 19.0085 55.3488 20.0256 55.8886C21.0369 56.4284 21.8267 57.204 22.3949 58.2153C22.9574 59.2267 23.2386 60.4426 23.2386 61.8631ZM19.7614 61.829C19.7614 61.4312 19.6278 61.0875 19.3608 60.7977C19.0938 60.5079 18.7131 60.2835 18.2188 60.1244C17.7244 59.9653 17.1364 59.8858 16.4546 59.8858C15.7671 59.8858 15.179 59.9653 14.6903 60.1244C14.196 60.2835 13.8153 60.5079 13.5483 60.7977C13.2813 61.0875 13.1477 61.4312 13.1477 61.829C13.1477 62.2494 13.2813 62.6102 13.5483 62.9113C13.8153 63.2125 14.196 63.4426 14.6903 63.6017C15.179 63.7608 15.767 63.8403 16.4545 63.8403C17.1364 63.8403 17.7244 63.7608 18.2188 63.6017C18.7131 63.4426 19.0938 63.2125 19.3608 62.9113C19.6278 62.6102 19.7614 62.2494 19.7614 61.829Z" fill="black" style="fill:black;fill-opacity:1;"/>
<path d="M26.6732 46.652L13.6997 42.9408L16.052 38.8665L23.7105 41.5561L23.7617 41.4675L17.6884 36.0322L19.9725 32.0761L27.6913 34.5249L27.7424 34.4364L21.6088 29.2418L23.9611 25.1676L33.6618 34.5473L31.122 38.9463L24.1197 37.0292L24.0515 37.1473L29.2129 42.2529L26.6732 46.652Z" fill="black" style="fill:black;fill-opacity:1;"/>
<path d="M40.2811 21.8485L43.9629 28.2256L39.8887 30.5779L33.3432 19.2408L37.2108 17.0078L38.4551 19.1631L38.5732 19.0949C38.4045 18.2344 38.5122 17.421 38.8964 16.6547C39.2855 15.8854 39.8959 15.2608 40.7275 14.7807C41.5295 14.3176 42.3323 14.1001 43.1359 14.1283C43.9415 14.1487 44.6913 14.3849 45.3854 14.8371C46.0844 15.2864 46.6687 15.9234 47.1382 16.748L51.3143 23.9813L47.24 26.3335L43.5582 19.9564C43.2393 19.3926 42.8423 19.0346 42.3674 18.8824C41.8973 18.7274 41.4064 18.7975 40.8947 19.093C40.5601 19.2862 40.3099 19.529 40.1442 19.8215C39.9805 20.1063 39.9104 20.4223 39.9338 20.7696C39.9544 21.1121 40.0701 21.4717 40.2811 21.8485Z" fill="black" style="fill:black;fill-opacity:1;"/>
</svg>
